<svg xmlns="http://www.w3.org/2000/svg" viewBox="0 0 450 95"><title>BIM Dictionary Logo New Responsive-15</title><g id="Layer_2" data-name="Layer 2"><path d="M137,11.59,107.63,28.72,78.27,11.59v71.5h3.51a5.16,5.16,0,0,0,5.09-5.42V25.6l20.77,12.46L128.4,25.6V83.09H133c3,0,4-2.44,4-5.42Z" fill="#f37f72"/><path d="M64.45,83.07H61.67V17a5.39,5.39,0,0,1,5.39-5.39h2.75V77.66A5.34,5.34,0,0,1,64.45,83.07Z" fill="#f37f72"/><path d="M39.42,43.39c4.48-3.32,6-8.39,6-14A18,18,0,0,0,27.18,11.59l-10.81,0A5.39,5.39,0,0,0,11,17v66H33.37a20.33,20.33,0,0,0,6.05-39.67ZM37.3,29.79c0,10-7.93,13.94-9.44,14.81L24,46.83a3.37,3.37,0,0,1-4.9-3V19.68h8.77C34.38,19.68,37.3,24.36,37.3,29.79ZM33.55,75H19.09V58.79a3.37,3.37,0,0,1,1.69-2.92l7.08-4.09C40,45.23,45.39,53.52,45.39,60.41,45.39,68.34,40.2,75,33.55,75Z" fill="#f37f72"/><path d="M154.87,11.56c4.49,0,9.4.07,13.69,2.65,5.32,3.25,8.09,9.62,8.09,22.23,0,12.28-2.63,19-8.43,22.43-4.36,2.59-9.06,2.59-13.34,2.59h-9.33V14.56a3,3,0,0,1,3-3Zm-3.8,42.39a3,3,0,0,0,3,3h1.49c3,0,6.57,0,9.54-2,4.56-3.05,5.81-9.36,5.81-18.45s-1.24-15.39-5.81-18.45c-3-2-6.5-2-9.54-2h-1.49a3,3,0,0,0-3,3Z"/><path d="M187.39,11.56v46.7a3.2,3.2,0,0,1-3.2,3.2h-2.33V14.76a3.2,3.2,0,0,1,3.2-3.2Z"/><path d="M218.45,60.28a27.08,27.08,0,0,1-8.09,1.18c-14.45,0-18-11.18-18-24.85s3.52-25.11,18-25.11a26.87,26.87,0,0,1,8,1.18v4.51H218a22.4,22.4,0,0,0-7.19-1.24c-9.47,0-12.65,7.39-12.65,20.34S201.38,57,211,57A22.07,22.07,0,0,0,218,55.77h.42Z"/><path d="M252.23,11.56v4.51l-11.61.07V58.46a3,3,0,0,1-3,3h-2.53V16.14H223.55V14.56a3,3,0,0,1,3-3Z"/><path d="M263,11.56v46.7a3.2,3.2,0,0,1-3.2,3.2h-2.33V14.76a3.2,3.2,0,0,1,3.2-3.2Z"/><path d="M298.23,17.31c-3-4.14-7.74-5.75-13.06-5.75s-10,1.62-13.06,5.69S268,26.94,268,36.7c0,9.11,1,15,3.94,19s7.74,5.75,13.06,5.75,10-1.62,13.06-5.69,4.15-9.82,4.15-19.59C302.17,27.07,301.13,21.32,298.23,17.31ZM294.54,51.7c-2.22,3.21-5.71,4.49-9.55,4.49s-7.33-1.27-9.55-4.54-2.88-7.8-2.88-15c0-7.7.86-12.23,3-15.34s5.71-4.49,9.55-4.49,7.33,1.27,9.55,4.54,2.88,7.7,2.88,14.88C297.57,43.95,296.71,48.54,294.54,51.7Z"/><path d="M307.57,11.56l26,35.38V14.56a3,3,0,0,1,3-3h1.91v49.9L312.48,28V58.46a3,3,0,0,1-3,3h-1.91V11.56"/><path d="M370.52,59.19l-3-11.67H352.15l-3.73,13.93h-4.91l13.08-47.69a3,3,0,0,1,2.89-2.21h4.21l13.13,49.9h-3.4A3,3,0,0,1,370.52,59.19Zm-17.2-16.05h13.14L360.1,17.73Z"/><path d="M413.21,11.56,423.58,36l9.66-22.66A3,3,0,0,1,436,11.56h3.13L425.79,42.15V58.46a3,3,0,0,1-3,3h-2.53V42.21L407.13,11.56Z"/><path d="M406.32,51.94l-6.49-15.22a16.33,16.33,0,0,0,2.46-2.28c2.42-2.56,3.49-6.5,3.49-10.45a12.59,12.59,0,0,0-12.71-12.4l-7.67,0a3.87,3.87,0,0,0-3.87,3.77v46.1h3c1.65,0,2.15-1.14,2-3V44.78c0-1.38,1.93-2,2.65-2.44,0,0,5.4-2.73,5.88-3.06l6.86,16,1.89,4.48a3,3,0,0,0,.61.87h0l0,0,0,0h0a3.2,3.2,0,0,0,2.07.89h4.14ZM391.12,36.19c-1.57.8-5.12,1.1-5.12-2.1V17.5h7.55c5.19,0,7.15,4.31,7.15,8.1,0,7-5.57,9-6.62,9.64A11.52,11.52,0,0,1,391.12,36.19Z"/><path d="M406.23,34.8l0,0,0,0Z"/><text transform="translate(143.93 83.28)" font-size="19" fill="#999" font-family="Raleway, Raleway" letter-spacing="0.01em">c<tspan x="10.72" y="0" letter-spacing="0.02em">ommon </tspan><tspan x="86.28" y="0" fill="#f37f72" letter-spacing="0.02em">language </tspan><tspan x="177.25" y="0" letter-spacing="0.02em">shared </tspan><tspan x="245.1" y="0" fill="#f37f72" letter-spacing="0.02em">goals</tspan></text></g></svg>